#!OML:ASF F:\VICON\USERDATA\INSTALL\rory3\rory3.ASF
:FULLY-SPECIFIED
:DEGREES
3258
root 3.12531 17.9474 4.60049 138.77 -69.8521 223.723
lowerback 12.0148 6.26951 -1.74159
upperback 3.49684 7.17902 -8.75545
thorax -2.06581 3.38715 -9.28103
lowerneck -7.46697 18.1606 -1.09082
upperneck 18.1662 26.0265 -9.02795
head 7.97305 11.3104 -0.271483
rclavicle 1.90833e-014 -9.22361e-014
rhumerus 22.2425 41.7189 -57.5676
rradius 75.8599
rwrist 40.5742
rhand -30.9352 20.3533
rfingers 7.12502
rthumb -4.22054 350.415
lclavicle 1.90833e-014 -9.22361e-014
lhumerus -9.63505 0.642515 84.6658
lradius 60.0327
lwrist 99.257
lhand -34.0495 -311.506
lfingers 7.12502
lthumb -7.22733 -281.649
rfemur -1.20419 4.81787 31.3813
rtibia 42.181
rfoot 7.37091 20.9743
rtoes -10.9003
lfemur -34.7092 7.64715 -12.2416
ltibia 47.4616
lfoot -14.7923 15.2893
ltoes 13.1117
3259
root 3.03079 17.9528 4.54723 136.513 -70.6796 226.08
lowerback 12.1763 6.18157 -2.06091
upperback 3.51546 7.02475 -8.61847
thorax -2.2158 3.3063 -8.95047
lowerneck -7.59382 18.086 -1.32774
upperneck 18.4339 25.9642 -8.86551
head 8.02848 11.2534 -0.185416
rclavicle 1.39944e-013 1.59028e-014
rhumerus 21.378 42.0983 -58.4561
rradius 76.0393
rwrist 40.7942
rhand -31.2828 19.9779
rfingers 7.12502
rthumb -4.55624 350.047
lclavicle 1.39944e-013 1.59028e-014
lhumerus -9.75454 1.5255 84.5372
lradius 59.6187
lwrist 98.7622
lhand -33.5752 -312.449
lfingers 7.12502
lthumb -6.76952 -282.577
rfemur -1.40244 5.34965 31.2942
rtibia 42.0798
rfoot 9.78189 22.1866
rtoes -10.9632
lfemur -34.6752 7.01116 -12.2021
ltibia 47.7029
lfoot -14.8928 14.7179
ltoes 12.054
3260
root 2.94032 17.9561 4.48845 133.803 -71.3472 228.916
lowerback 12.3087 6.08966 -2.31884
upperback 3.55071 6.88162 -8.42964
thorax -2.32747 3.23415 -8.59358
lowerneck -7.76589 18.0473 -1.57579
upperneck 18.5961 25.942 -8.67639
head 8.05265 11.2267 -0.0861879
rclavicle -3.49861e-014 1.04958e-013
rhumerus 20.7611 42.6338 -59.1622
rradius 76.04
rwrist 40.6321
rhand -30.9801 19.8937
rfingers 7.12502
rthumb -4.26394 349.957
lclavicle -3.49861e-014 1.04958e-013
lhumerus -10.0176 2.21728 84.307
lradius 59.391
lwrist 98.2125
lhand -32.4307 -314.78
lfingers 7.12502
lthumb -5.66459 -284.876
rfemur -1.61441 5.94012 31.4542
rtibia 41.997
rfoot 11.1472 23.2838
rtoes -10.044
lfemur -34.7031 6.52969 -11.9645
ltibia 47.9453
lfoot -14.8828 14.0523
ltoes 11.2495
3261
root 2.85245 17.9635 4.42885 130.823 -71.8744 232.12
lowerback 12.4005 6.00555 -2.34799
upperback 3.58533 6.77601 -8.32582
thorax -2.37157 3.18409 -8.45851
lowerneck -8.10366 17.9835 -1.62947
upperneck 18.7674 25.892 -8.53093
head 8.13812 11.1888 -0.00357589
rclavicle -1.74931e-014 1.84472e-013
rhumerus 20.3167 43.0387 -59.9315
rradius 75.6342
rwrist 40.2481
rhand -30.2502 20.269
rfingers 7.12502
rthumb -3.5591 350.319
lclavicle -1.74931e-014 1.84472e-013
lhumerus -10.3156 2.67277 83.917
lradius 59.3651
lwrist 97.6508
lhand -31.9792 -316.388
lfingers 7.12502
lthumb -5.22868 -286.473
rfemur -1.91696 6.85386 31.7919
rtibia 41.954
rfoot 11.0379 23.8165
rtoes -9.12342
lfemur -34.9011 6.18654 -11.5804
ltibia 48.1673
lfoot -14.8583 13.2347
ltoes 10.548
3262
root 2.76657 17.974 4.37631 128.082 -72.5156 235.161
lowerback 12.4926 5.87172 -2.29986
upperback 3.55471 6.59565 -8.41035
thorax -2.46031 3.0945 -8.56891
lowerneck -8.22964 17.9205 -1.64921
upperneck 18.7354 25.7801 -8.30078
head 8.10711 11.1608 0.0612375
rclavicle 1.11319e-013 -3.18055e-014
rhumerus 19.8618 43.5527 -60.8907
rradius 75.2377
rwrist 40.2898
rhand -29.7744 20.3564
rfingers 7.12502
rthumb -3.09959 350.399
lclavicle 1.11319e-013 -3.18055e-014
lhumerus -10.5276 3.39459 83.3012
lradius 59.1489
lwrist 96.7245
lhand -32.0312 -316.527
lfingers 7.12502
lthumb -5.27882 -286.613
rfemur -2.34979 7.7515 31.8703
rtibia 41.9928
rfoot 9.74627 23.9585
rtoes -9.26655
lfemur -35.1595 5.77493 -11.4447
ltibia 48.3261
lfoot -14.9436 12.4718
ltoes 10.5255
3263
root 2.68331 17.9767 4.32543 125.487 -73.1587 238.08
lowerback 12.4819 5.74223 -2.41811
upperback 3.48903 6.41189 -8.43946
thorax -2.55788 3.00308 -8.51368
lowerneck -7.93013 17.8734 -1.67462
upperneck 18.4081 25.6569 -8.27976
head 7.93366 11.1479 0.0109273
rclavicle -8.42847e-014 6.04305e-014
rhumerus 19.4527 44.4325 -61.5324
rradius 75.3513
rwrist 40.3471
rhand -29.5941 20.1927
rfingers 7.12502
rthumb -2.92548 350.233
lclavicle -8.42847e-014 6.04305e-014
lhumerus -10.7254 4.34884 82.6943
lradius 58.6256
lwrist 95.602
lhand -31.6413 -316.304
lfingers 7.12502
lthumb -4.90239 -286.381
rfemur -2.89797 8.40424 31.773
rtibia 42.1683
rfoot 7.61173 23.7536
rtoes -10.7424
lfemur -35.3888 5.36174 -11.437
ltibia 48.393
lfoot -15.0172 11.8178
ltoes 10.7307
3264
root 2.5999 17.9795 4.27708 122.965 -73.7218 240.875
lowerback 12.4231 5.69268 -2.61425
upperback 3.52019 6.33521 -8.40193
thorax -2.52969 2.96683 -8.34233
lowerneck -7.84976 17.7792 -1.72498
upperneck 18.2075 25.5334 -8.39896
head 7.85885 11.0988 -0.0469651
rclavicle 4.13472e-014 -3.81667e-014
rhumerus 19.3362 45.3846 -61.7776
rradius 75.4623
rwrist 39.9891
rhand -29.2264 20.0318
rfingers 7.12502
rthumb -2.57035 350.068
lclavicle 4.13472e-014 -3.81667e-014
lhumerus -10.7821 5.15082 82.2193
lradius 58.0041
lwrist 94.5848
lhand -31.1984 -315.907
lfingers 7.12502
lthumb -4.47471 -285.974
rfemur -3.45548 9.00313 31.6274
rtibia 42.4915
rfoot 4.65971 22.9889
rtoes -12.5109
lfemur -35.4768 5.00302 -11.4485
ltibia 48.3238
lfoot -15.0189 11.2796
ltoes 10.8306
3265
root 2.51846 17.9944 4.24668 121.016 -74.4902 243.213
lowerback 12.3086 5.66895 -2.83675
upperback 3.55046 6.27873 -8.52186
thorax -2.45269 2.93882 -8.32578
lowerneck -7.90425 17.6293 -1.7387
upperneck 18.0764 25.3472 -8.49325
head 7.82875 11.0142 -0.0914078
rclavicle 4.6118e-014 1.46306e-013
rhumerus 19.3765 46.2611 -62.0557
rradius 75.0978
rwrist 39.8347
rhand -29.2572 19.8029
rfingers 7.12502
rthumb -2.60015 349.839
lclavicle 4.6118e-014 1.46306e-013
lhumerus -10.5534 6.1918 81.8098
lradius 57.1556
lwrist 93.3689
lhand -31.0206 -315.823
lfingers 7.12502
lthumb -4.30298 -285.886
rfemur -4.23709 9.38389 30.9831
rtibia 42.8868
rfoot 1.64975 21.7703
rtoes -13.0182
lfemur -35.619 4.57393 -11.8266
ltibia 48.1648
lfoot -15.1588 10.7431
ltoes 11.7416
3266
root 2.43678 18.0176 4.22447 119.625 -75.4942 245.078
lowerback 12.0955 5.61888 -3.39033
upperback 3.57686 6.14792 -8.68574
thorax -2.36605 2.86949 -8.15057
lowerneck -8.11516 17.5579 -1.8888
upperneck 18.0288 25.2918 -8.51132
head 7.83114 10.9766 -0.0677083
rclavicle -1.59028e-014 -7.95139e-014
rhumerus 19.6267 47.3325 -62.1931
rradius 74.6857
rwrist 39.805
rhand -29.5683 19.3719
rfingers 7.12502
rthumb -2.90051 349.412
lclavicle -1.59028e-014 -7.95139e-014
lhumerus -10.2534 7.41844 81.3347
lradius 56.0896
lwrist 92.2514
lhand -30.5333 -315.995
lfingers 7.12502
lthumb -3.83243 -286.049
rfemur -5.15545 9.55035 29.8786
rtibia 43.2654
rfoot -1.39861 20.2539
rtoes -13.8923
lfemur -35.815 4.24252 -12.6191
ltibia 47.9479
lfoot -15.2815 10.2497
ltoes 11.9816
3267
root 2.35772 18.0313 4.17986 116.636 -75.8929 248.457
lowerback 12.0271 5.54596 -3.55413
upperback 3.59414 6.05094 -8.6152
thorax -2.34759 2.82388 -7.95917
lowerneck -8.33477 17.534 -1.98316
upperneck 18.0129 25.3083 -8.58163
head 7.86305 10.9675 -0.0541184
rclavicle 6.36111e-015 3.18055e-014
rhumerus 19.9204 48.5162 -62.3401
rradius 74.1937
rwrist 39.7482
rhand -29.9731 18.8778
rfingers 7.12502
rthumb -3.29147 348.923
lclavicle 6.36111e-015 3.18055e-014
lhumerus -10.1024 8.24971 80.6218
lradius 55.0229
lwrist 91.4656
lhand -29.922 -315.91
lfingers 7.12502
lthumb -3.24213 -285.955
rfemur -5.88581 9.80583 29.6714
rtibia 43.5432
rfoot -4.65954 17.9501
rtoes -15.2787
lfemur -35.9794 4.06232 -12.6161
ltibia 47.7517
lfoot -15.1814 9.66954
ltoes 11.6793
3268
root 2.27924 18.0438 4.1299 112.566 -76.0221 252.805
lowerback 12.099 5.42434 -3.39842
upperback 3.62495 5.92116 -8.53002
thorax -2.36174 2.76474 -7.94206
lowerneck -8.4108 17.5035 -1.8198
upperneck 17.9295 25.29 -8.79009
head 7.89769 10.955 -0.126034
rclavicle 6.36111e-014 -3.81667e-014
rhumerus 20.2437 49.7547 -62.6535
rradius 73.6167
rwrist 39.7762
rhand -30.4336 18.1949
rfingers 7.12502
rthumb -3.73621 348.248
lclavicle 6.36111e-014 -3.81667e-014
lhumerus -9.99883 8.8605 79.6941
lradius 53.867
lwrist 90.6893
lhand -29.0249 -315.869
lfingers 7.12502
lthumb -2.37574 -285.902
rfemur -6.45643 9.83061 29.7476
rtibia 43.7366
rfoot -7.71871 15.1445
rtoes -16.4219
lfemur -36.0458 3.84862 -12.284
ltibia 47.5741
lfoot -15.1172 8.95733
ltoes 11.4017
3269
root 2.19955 18.0634 4.09214 108.827 -76.4291 256.727
lowerback 12.2297 5.34898 -3.40743
upperback 3.73285 5.8109 -8.58941
thorax -2.32493 2.71007 -7.995
lowerneck -8.48646 17.399 -1.74813
upperneck 17.8036 25.1474 -8.83312
head 7.8773 10.9004 -0.158485
rclavicle 0 -9.54166e-015
rhumerus 20.6838 50.8739 -62.9741
rradius 72.9606
rwrist 39.7988
rhand -30.5878 17.836
rfingers 7.12502
rthumb -3.8851 347.892
lclavicle 0 -9.54166e-015
lhumerus -9.66745 9.44614 78.794
lradius 52.4132
lwrist 89.6038
lhand -27.5799 -315.836
lfingers 7.12502
lthumb -0.980142 -285.859
rfemur -6.93699 9.49728 29.3203
rtibia 43.8322
rfoot -10.385 12.0631
rtoes -17.6899
lfemur -35.9799 3.51309 -12.3944
ltibia 47.4248
lfoot -15.1294 8.39963
ltoes 10.6564
3270
root 2.12486 18.0736 4.05054 104.839 -76.6769 260.921
lowerback 12.3133 5.31453 -3.34035
upperback 3.86423 5.77928 -8.5678
thorax -2.23016 2.69785 -8.00549
lowerneck -8.59573 17.2257 -1.89462
upperneck 17.6698 24.912 -8.71902
head 7.80733 10.8048 -0.132065
rclavicle 3.18055e-014 -6.36111e-014
rhumerus 21.0697 51.8307 -63.2548
rradius 72.3366
rwrist 39.8181
rhand -30.53 17.6582
rfingers 7.12502
rthumb -3.8293 347.713
lclavicle 3.18055e-014 -6.36111e-014
lhumerus -9.15776 10.1866 78.0484
lradius 50.8787
lwrist 88.5752
lhand -26.8166 -315.673
lfingers 7.12502
lthumb -0.24296 -285.693
rfemur -7.4212 9.23342 29.0855
rtibia 43.7857
rfoot -12.6114 8.40828
rtoes -19.0928
lfemur -35.9787 3.2377 -12.4153
ltibia 47.3395
lfoot -15.0581 7.98924
ltoes 9.62836
